G04 Layer_Color=65535*
%FSLAX25Y25*%
%MOIN*%
G70*
G01*
G75*
%ADD11C,0.01000*%
%ADD14C,0.00787*%
%ADD15C,0.00800*%
D11*
X114235Y49305D02*
X110236D01*
Y46306D01*
X112236D01*
X110236D01*
Y43307D01*
X117234D02*
X119233D01*
X120233Y44307D01*
Y46306D01*
X119233Y47306D01*
X117234D01*
X116234Y46306D01*
Y44307D01*
X117234Y43307D01*
X122232Y47306D02*
Y43307D01*
Y45306D01*
X123232Y46306D01*
X124232Y47306D01*
X125231D01*
X132229D02*
X129230D01*
X128230Y46306D01*
Y44307D01*
X129230Y43307D01*
X132229D01*
X137227D02*
X135228D01*
X134229Y44307D01*
Y46306D01*
X135228Y47306D01*
X137227D01*
X138227Y46306D01*
Y45306D01*
X134229D01*
X150223Y48305D02*
X149224Y49305D01*
X147224D01*
X146225Y48305D01*
Y47306D01*
X147224Y46306D01*
X149224D01*
X150223Y45306D01*
Y44307D01*
X149224Y43307D01*
X147224D01*
X146225Y44307D01*
X155222Y43307D02*
X153222D01*
X152223Y44307D01*
Y46306D01*
X153222Y47306D01*
X155222D01*
X156221Y46306D01*
Y45306D01*
X152223D01*
X158221Y43307D02*
Y47306D01*
X161220D01*
X162219Y46306D01*
Y43307D01*
X164219D02*
X167218D01*
X168218Y44307D01*
X167218Y45306D01*
X165218D01*
X164219Y46306D01*
X165218Y47306D01*
X168218D01*
X171216Y43307D02*
X173216D01*
X174215Y44307D01*
Y46306D01*
X173216Y47306D01*
X171216D01*
X170217Y46306D01*
Y44307D01*
X171216Y43307D01*
X176215Y47306D02*
Y43307D01*
Y45306D01*
X177215Y46306D01*
X178214Y47306D01*
X179214D01*
X188211Y49305D02*
X192210D01*
X190210D01*
Y43307D01*
X197208D02*
X195209D01*
X194209Y44307D01*
Y46306D01*
X195209Y47306D01*
X197208D01*
X198208Y46306D01*
Y45306D01*
X194209D01*
X200207Y43307D02*
X203206D01*
X204206Y44307D01*
X203206Y45306D01*
X201207D01*
X200207Y46306D01*
X201207Y47306D01*
X204206D01*
X207205Y48305D02*
Y47306D01*
X206205D01*
X208205D01*
X207205D01*
Y44307D01*
X208205Y43307D01*
X217202Y46306D02*
X221200D01*
X229198Y43307D02*
Y49305D01*
X232197D01*
X233196Y48305D01*
Y46306D01*
X232197Y45306D01*
X229198D01*
X231197D02*
X233196Y43307D01*
X238195D02*
X236195D01*
X235196Y44307D01*
Y46306D01*
X236195Y47306D01*
X238195D01*
X239194Y46306D01*
Y45306D01*
X235196D01*
X241194Y47306D02*
X243193Y43307D01*
X245193Y47306D01*
X253190Y43307D02*
X255189D01*
X254190D01*
Y49305D01*
X253190Y48305D01*
X138232Y189539D02*
Y195537D01*
X141230D01*
X142230Y194538D01*
Y192538D01*
X141230Y191539D01*
X138232D01*
X144230Y189539D02*
X146229D01*
X145229D01*
Y195537D01*
X144230Y194538D01*
D14*
X137598Y166102D02*
Y186102D01*
X217598Y166102D02*
Y186102D01*
X137598D02*
X217598D01*
X137598Y166102D02*
X217598D01*
D15*
X219266Y173102D02*
X222598D01*
X219266Y169770D01*
Y168937D01*
X220099Y168104D01*
X221765D01*
X222598Y168937D01*
Y183102D02*
X220932D01*
X221765D01*
Y178104D01*
X222598Y178937D01*
X136598Y183102D02*
X134932D01*
X135765D01*
Y178104D01*
X136598Y178937D01*
X129101Y178104D02*
X132433D01*
Y180603D01*
X130767Y179770D01*
X129934D01*
X129101Y180603D01*
Y182269D01*
X129934Y183102D01*
X131600D01*
X132433Y182269D01*
X136598Y173102D02*
X134932D01*
X135765D01*
Y168104D01*
X136598Y168937D01*
X129101Y168104D02*
X130767Y168937D01*
X132433Y170603D01*
Y172269D01*
X131600Y173102D01*
X129934D01*
X129101Y172269D01*
Y171436D01*
X129934Y170603D01*
X132433D01*
M02*
