G04 Layer_Physical_Order=1*
G04 Layer_Color=255*
%FSLAX25Y25*%
%MOIN*%
G70*
G01*
G75*
%ADD10C,0.03150*%
%ADD11C,0.01000*%
%ADD12R,0.05906X0.05906*%
%ADD13C,0.05906*%
D10*
X85039Y248661D02*
Y300394D01*
Y248661D02*
X152598Y181102D01*
X52362Y267323D02*
X56378D01*
X142598Y181102D01*
X266929Y245433D02*
Y302362D01*
X202598Y181102D02*
X266929Y245433D01*
X212598Y181102D02*
X300394Y268898D01*
X269685Y54331D02*
Y104016D01*
X202598Y171102D02*
X269685Y104016D01*
X296693Y87008D02*
X301969D01*
X212598Y171102D02*
X296693Y87008D01*
X87008Y52362D02*
Y105512D01*
X152598Y171102D01*
X54724Y85039D02*
X56535D01*
X142598Y171102D01*
D11*
X35433Y352362D02*
X84605Y301142D01*
X31496Y352362D02*
X35433D01*
X31496D02*
X80709Y301181D01*
X78740Y299213D02*
X80709Y301181D01*
X27559Y352362D02*
X78740Y299213D01*
X23622Y352362D02*
X27559D01*
X23622D02*
X76772Y297244D01*
X75197Y295276D02*
X76772Y297244D01*
X19685Y352362D02*
X75197Y295276D01*
X15748Y352362D02*
X19685D01*
X15748D02*
X72835Y293307D01*
X70866Y291339D02*
X72835Y293307D01*
X11811Y352362D02*
X70866Y291339D01*
X7874Y352362D02*
X11811D01*
X7874D02*
X68898Y289370D01*
X66929Y287402D02*
X68898Y289370D01*
X3937Y352362D02*
X66929Y287402D01*
X1969Y350394D02*
X3937Y352362D01*
X1969Y350394D02*
X64961Y285433D01*
X62992Y283465D02*
X64961Y285433D01*
X1969Y346457D02*
X62992Y283465D01*
X1969Y342520D02*
Y346457D01*
Y342520D02*
X61024Y281496D01*
X59055Y279528D02*
X61024Y281496D01*
X1969Y338583D02*
X59055Y279528D01*
X1969Y334646D02*
Y338583D01*
Y334646D02*
X57087Y277559D01*
X55118Y275591D02*
X57087Y277559D01*
X1969Y330709D02*
X55118Y275591D01*
X1969Y326772D02*
Y330709D01*
Y326772D02*
X53150Y273622D01*
X51181Y271654D02*
X53150Y273622D01*
X1969Y323228D02*
X51181Y271654D01*
X1969Y318898D02*
Y323228D01*
Y318898D02*
X41339Y277559D01*
X51181Y267717D01*
X1969Y35433D02*
X53189Y84605D01*
X1969Y31496D02*
Y35433D01*
Y31496D02*
X53150Y80709D01*
X55118Y78740D01*
X1969Y27559D02*
X55118Y78740D01*
X1969Y23622D02*
Y27559D01*
Y23622D02*
X57087Y76772D01*
X59055Y75197D01*
X1969Y19685D02*
X59055Y75197D01*
X1969Y15748D02*
Y19685D01*
Y15748D02*
X61024Y72835D01*
X62992Y70866D01*
X1969Y11811D02*
X62992Y70866D01*
X1969Y7874D02*
Y11811D01*
Y7874D02*
X64961Y68898D01*
X66929Y66929D01*
X1969Y3937D02*
X66929Y66929D01*
X1969Y3937D02*
X3937Y1969D01*
X68898Y64961D01*
X70866Y62992D01*
X7874Y1969D02*
X70866Y62992D01*
X7874Y1969D02*
X11811D01*
X72835Y61024D01*
X74803Y59055D01*
X15748Y1969D02*
X74803Y59055D01*
X15748Y1969D02*
X19685D01*
X76772Y57087D01*
X78740Y55118D01*
X23622Y1969D02*
X78740Y55118D01*
X23622Y1969D02*
X27559D01*
X80709Y53150D01*
X82677Y51181D01*
X31102Y1969D02*
X82677Y51181D01*
X31102Y1969D02*
X35433D01*
X76772Y41339D01*
X86614Y51181D01*
X303150Y86614D02*
X312992Y76772D01*
X352362Y35433D01*
Y31102D02*
Y35433D01*
X303150Y82677D02*
X352362Y31102D01*
X301181Y80709D02*
X303150Y82677D01*
X301181Y80709D02*
X352362Y27559D01*
Y23622D02*
Y27559D01*
X299213Y78740D02*
X352362Y23622D01*
X297244Y76772D02*
X299213Y78740D01*
X297244Y76772D02*
X352362Y19685D01*
Y15748D02*
Y19685D01*
X295276Y74803D02*
X352362Y15748D01*
X293307Y72835D02*
X295276Y74803D01*
X293307Y72835D02*
X352362Y11811D01*
Y7874D02*
Y11811D01*
X291339Y70866D02*
X352362Y7874D01*
X289370Y68898D02*
X291339Y70866D01*
X289370Y68898D02*
X352362Y3937D01*
X350394Y1969D02*
X352362Y3937D01*
X287402Y66929D02*
X350394Y1969D01*
X285433Y64961D02*
X287402Y66929D01*
X285433Y64961D02*
X346457Y1969D01*
X342520D02*
X346457D01*
X283465Y62992D02*
X342520Y1969D01*
X281496Y61024D02*
X283465Y62992D01*
X281496Y61024D02*
X338583Y1969D01*
X334646D02*
X338583D01*
X279134Y59055D02*
X334646Y1969D01*
X277559Y57087D02*
X279134Y59055D01*
X277559Y57087D02*
X330709Y1969D01*
X326772D02*
X330709D01*
X275590Y55118D02*
X326772Y1969D01*
X273622Y53150D02*
X275590Y55118D01*
X273622Y53150D02*
X322835Y1969D01*
X318898D02*
X322835D01*
X269726Y53189D02*
X318898Y1969D01*
X301575Y270142D02*
X352362Y318898D01*
Y322835D01*
X301181Y273622D02*
X352362Y322835D01*
X299213Y275590D02*
X301181Y273622D01*
X299213Y275590D02*
X352362Y326772D01*
Y330709D01*
X297244Y277559D02*
X352362Y330709D01*
X295276Y279134D02*
X297244Y277559D01*
X295276Y279134D02*
X352362Y334646D01*
Y338583D01*
X293307Y281496D02*
X352362Y338583D01*
X291339Y283465D02*
X293307Y281496D01*
X291339Y283465D02*
X352362Y342520D01*
Y346457D01*
X289370Y285433D02*
X352362Y346457D01*
X287402Y287402D02*
X289370Y285433D01*
X287402Y287402D02*
X352362Y350394D01*
X350394Y352362D02*
X352362Y350394D01*
X285433Y289370D02*
X350394Y352362D01*
X283465Y291339D02*
X285433Y289370D01*
X283465Y291339D02*
X346457Y352362D01*
X342520D02*
X346457D01*
X281496Y293307D02*
X342520Y352362D01*
X279528Y295276D02*
X281496Y293307D01*
X279528Y295276D02*
X338583Y352362D01*
X334646D02*
X338583D01*
X277559Y297244D02*
X334646Y352362D01*
X275591Y299213D02*
X277559Y297244D01*
X275591Y299213D02*
X330709Y352362D01*
X326772D02*
X330709D01*
X273622Y301181D02*
X326772Y352362D01*
X271654Y303150D02*
X273622Y301181D01*
X271654Y303150D02*
X323228Y352362D01*
X318898D02*
X323228D01*
X277559Y312992D02*
X318898Y352362D01*
X267717Y303150D02*
X277559Y312992D01*
D12*
X212598Y181102D02*
D03*
D13*
Y171102D02*
D03*
X202598Y181102D02*
D03*
Y171102D02*
D03*
X192598Y181102D02*
D03*
Y171102D02*
D03*
X182598Y181102D02*
D03*
Y171102D02*
D03*
X172598Y181102D02*
D03*
Y171102D02*
D03*
X162598Y181102D02*
D03*
Y171102D02*
D03*
X152598Y181102D02*
D03*
Y171102D02*
D03*
X142598Y181102D02*
D03*
Y171102D02*
D03*
M02*
